<svg width="196" height="203" viewBox="0 0 196 203" fill="none" xmlns="http://www.w3.org/2000/svg">
<path d="M81.4859 143.225C83.7175 150.109 81.7995 158.251 76.779 165.888C71.7608 173.521 63.6727 180.594 53.6948 185.266C43.7169 189.937 33.7792 191.304 25.7866 189.763C17.7906 188.22 11.7951 183.784 9.56349 176.9C7.33189 170.016 9.24987 161.874 14.2703 154.237C19.2886 146.604 27.3767 139.531 37.3546 134.859C47.3324 130.188 57.2702 128.821 65.2627 130.362C73.2588 131.905 79.2543 136.341 81.4859 143.225Z" fill="white" stroke="white"/>
<path d="M187.223 124.173C189.455 131.057 187.537 139.199 182.516 146.835C177.498 154.469 169.41 161.541 159.432 166.213C149.454 170.885 139.516 172.252 131.524 170.71C123.528 169.168 117.532 164.731 115.301 157.847C113.069 150.963 114.987 142.822 120.007 135.185C125.026 127.551 133.114 120.479 143.092 115.807C153.07 111.135 163.007 109.768 171 111.31C178.996 112.852 184.991 117.289 187.223 124.173Z" fill="white" stroke="white"/>
<path d="M77.5161 146V35.7736L183.191 8V131" stroke="white" stroke-width="12"/>
<path d="M77.5161 45L185.271 16" stroke="white" stroke-width="23"/>
</svg>
