<svg width="196" height="203" viewBox="0 0 196 203" fill="none" xmlns="http://www.w3.org/2000/svg">
<path d="M80.6995 143.225C82.9311 150.109 81.0131 158.251 75.9926 165.888C70.9744 173.521 62.8863 180.594 52.9084 185.266C42.9305 189.937 32.9928 191.304 25.0003 189.763C17.0042 188.22 11.0087 183.784 8.77711 176.9C6.54551 170.016 8.46349 161.874 13.484 154.237C18.5022 146.604 26.5903 139.531 36.5682 134.859C46.5461 130.188 56.4838 128.821 64.4763 130.362C72.4724 131.905 78.4679 136.341 80.6995 143.225Z" fill="#FF00A9" stroke="#FF00A9"/>
<path d="M186.437 124.173C188.668 131.057 186.75 139.199 181.73 146.835C176.711 154.469 168.623 161.541 158.645 166.213C148.668 170.885 138.73 172.252 130.737 170.71C122.741 169.168 116.746 164.731 114.514 157.847C112.283 150.963 114.201 142.822 119.221 135.185C124.239 127.551 132.327 120.479 142.305 115.807C152.283 111.135 162.221 109.768 170.213 111.31C178.209 112.852 184.205 117.289 186.437 124.173Z" fill="#FF00A9" stroke="#FF00A9"/>
<path d="M76.7297 146V35.7736L182.405 8V131" stroke="#FF00A9" stroke-width="12"/>
<path d="M76.7297 45L184.485 16" stroke="#FF00A9" stroke-width="23"/>
</svg>
